:SAMPLES-PER-SECOND 30
:FULLY-SPECIFIED
:DEGREES
33
root  76.7533 40.2077 -5.67901 -31.902 -88.3125 30.2109
RightUpLeg  0.110524 -9.96008 -5.65968
RightLeg  9.86847 -5.29831 1.61198
RightFoot  -8.74161 -0.0559633 -0.149312
RightToes  1.16414e-010 0 -3.6325e-017
Spine  2.92627 -1.58992 1.37381
Spine1  7.53784 -2.07793 1.60816
HEad  -5.37838 5.63437 -7.99078
LeftShoulder1  8.4209 -11.2938 -49.6682
LeftArm  -21.6849 20.3675 -29.2631
LeftForeArm  18.7122 -14.9038 -2.48732
LeftHand  -0.244104 0.0205437 5.32207
RightShoulder  5.71703 8.42653 41.6755
RightArm  -8.0529 -22.9223 35.5929
RightForeArm  4.45078 14.4381 5.93116
RightHand  -0.41049 -0.85861 -10.4769
LeftUpLeg  1.9648 6.58689 6.65226
LeftLeg  4.29474 4.0987 -3.18425
LeftFoot  -4.75629 0.30711 -4.83725
LeftToes  -6.73059e-011 1.31891e-010 -1.28765e-011
34
root  76.4691 40.1525 -5.93919 -42.7253 -88.6858 41.0293
RightUpLeg  0.121932 -9.96371 -5.16861
RightLeg  10.6363 -4.79478 1.41646
RightFoot  -9.45379 -0.0533271 -0.653939
RightToes  1.16414e-010 0 -3.6325e-017
Spine  2.47467 -1.42888 1.76666
Spine1  8.62863 -1.95777 1.76184
HEad  -6.25029 6.0605 -9.16873
LeftShoulder1  8.65178 -11.5425 -50.1855
LeftArm  -23.3023 22.5727 -32.1082
LeftForeArm  17.9168 -16.1752 -2.51274
LeftHand  -0.244104 0.0205437 5.32207
RightShoulder  6.06719 8.82066 42.8922
RightArm  -7.17661 -23.8474 36.6879
RightForeArm  6.26059 12.3567 6.56051
RightHand  -0.386207 -1.03892 -10.2455
LeftUpLeg  1.97611 6.90501 7.02346
LeftLeg  5.41743 4.15279 -2.71866
LeftFoot  -5.53721 0.294719 -5.1516
LeftToes  -6.73059e-011 1.31891e-010 -1.28765e-011
35
root  76.1747 40.0442 -6.17941 -69.484 -89.3024 67.6368
RightUpLeg  0.115893 -10.0806 -4.65815
RightLeg  11.7951 -3.87429 1.37918
RightFoot  -10.3677 -0.0620217 -0.945151
RightToes  1.16414e-010 0 -3.6325e-017
Spine  1.37151 -1.13576 3.4831
Spine1  11.0945 -1.43237 0.962568
HEad  -7.49656 5.95683 -10.4083
LeftShoulder1  8.8329 -11.7879 -50.4141
LeftArm  -23.3229 23.1167 -33.8207
LeftForeArm  18.9192 -15.8905 -2.4709
LeftHand  -0.244104 0.0205437 5.32207
RightShoulder  6.46634 9.38363 43.7682
RightArm  -5.51476 -24.1596 37.3309
RightForeArm  6.93065 11.4874 7.06961
RightHand  -0.41313 -0.871115 -10.5627
LeftUpLeg  1.5551 7.75492 7.33914
LeftLeg  7.84512 3.70412 -1.6124
LeftFoot  -7.19677 0.252799 -5.85836
LeftToes  -6.73059e-011 1.31891e-010 -1.28765e-011
36
root  75.9118 39.8614 -6.38003 -108.256 -89.8904 106.293
RightUpLeg  -0.0312956 -10.6395 -4.13861
RightLeg  13.3972 -3.05236 1.59958
RightFoot  -11.7457 -0.0817396 -0.783715
RightToes  1.16414e-010 0 -3.6325e-017
Spine  0.593631 -1.02114 6.09695
Spine1  13.3076 -0.894111 -0.205464
HEad  -8.86526 5.60932 -11.2897
LeftShoulder1  8.89991 -11.9474 -50.2747
LeftArm  -22.5067 22.4434 -34.5548
LeftForeArm  19.642 -13.7437 -2.25754
LeftHand  -0.244104 0.0205437 5.32207
RightShoulder  6.82801 9.98566 44.1745
RightArm  -3.50221 -24.0598 37.6656
RightForeArm  5.27212 11.493 7.52633
RightHand  -0.464386 -0.795592 -11.7104
LeftUpLeg  -0.289897 8.84874 7.57941
LeftLeg  12.5167 2.99267 0.228337
LeftFoot  -8.90374 0.212307 -7.41457
LeftToes  -6.73059e-011 1.31891e-010 -1.28765e-011
37
root  75.6969 39.6447 -6.54392 21.2293 -89.126 -23.3628
RightUpLeg  -0.0933358 -11.5572 -3.69179
RightLeg  15.1416 -2.80638 1.83497
RightFoot  -13.3717 -0.0968366 -0.360629
RightToes  1.16414e-010 0 -3.6325e-017
Spine  1.31284 -1.18035 8.52633
Spine1  13.6215 -0.600751 -1.1094
HEad  -10.2777 5.38576 -11.2886
LeftShoulder1  8.9523 -12.11 -50.0474
LeftArm  -21.5688 21.6551 -34.3892
LeftForeArm  18.9721 -11.0158 -2.13474
LeftHand  -0.244104 0.0205437 5.32207
RightShoulder  7.04327 10.3564 44.3561
RightArm  -1.45665 -23.6737 37.3205
RightForeArm  2.69173 11.869 7.87973
RightHand  -0.474447 -1.07822 -12.7162
LeftUpLeg  -3.76583 7.40671 7.60965
LeftLeg  19.668 5.31809 2.57932
LeftFoot  -9.06131 0.217509 -8.19363
LeftToes  -6.73059e-011 1.31891e-010 -1.28765e-011
38
root  75.4796 39.4801 -6.69199 17.3935 -87.9647 -19.9255
RightUpLeg  0.313341 -12.2924 -3.47735
RightLeg  16.4759 -3.17139 1.78379
RightFoot  -14.7227 -0.10132 -0.0488875
RightToes  1.16414e-010 0 -3.6325e-017
Spine  3.04818 -1.41341 10.0618
Spine1  12.8589 -0.449391 -1.63714
HEad  -11.1312 4.84439 -10.8822
LeftShoulder1  9.10601 -12.3751 -50.0582
LeftArm  -20.7011 21.1972 -33.4837
LeftForeArm  17.8695 -9.35241 -2.18202
LeftHand  -0.244104 0.0205437 5.32207
RightShoulder  7.09255 10.4355 44.4155
RightArm  -0.16558 -22.467 36.2458
RightForeArm  1.36928 11.8904 8.11525
RightHand  -0.469061 -1.27972 -13.1655
LeftUpLeg  -7.95326 4.71097 7.25108
LeftLeg  28.073 8.99053 5.48768
LeftFoot  -7.47306 0.262312 -6.56599
LeftToes  -6.73059e-011 1.31891e-010 -1.28765e-011
39
root  75.1935 39.4109 -6.83471 7.36533 -87.0804 -10.2753
RightUpLeg  1.08118 -12.4975 -3.61241
RightLeg  17.0924 -3.83847 1.55272
RightFoot  -15.609 -0.101644 0.106919
RightToes  1.16414e-010 0 -3.6325e-017
Spine  4.21567 -1.48812 10.7103
Spine1  12.8505 -0.271534 -1.934
HEad  -12.259 4.36779 -10.1121
LeftShoulder1  9.29842 -12.6457 -50.26
LeftArm  -20.2426 20.8875 -32.2778
LeftForeArm  17.6342 -9.39633 -2.2873
LeftHand  -0.244104 0.0205437 5.32207
RightShoulder  7.04459 10.4435 44.0742
RightArm  -0.499653 -19.9387 35.0787
RightForeArm  1.39848 11.1018 8.28269
RightHand  -0.53023 -0.97102 -13.8665
LeftUpLeg  -12.0296 3.52716 6.13816
LeftLeg  35.2842 9.73725 7.63446
LeftFoot  -6.04058 0.222889 -3.96709
LeftToes  -6.73059e-011 1.31891e-010 -1.28765e-011
